<svg id="svg" xmlns="http://www.w3.org/2000/svg" xmlns:xlink="http://www.w3.org/1999/xlink" width="400" height="400" viewBox="0, 0, 400,400"><g id="svgg"><path id="path0" d="M42.188 13.975 C 27.862 18.612,17.992 28.660,13.760 42.915 C 11.861 49.312,11.861 144.438,13.760 150.835 C 18.046 165.274,28.476 175.704,42.915 179.990 C 50.179 182.147,172.016 181.872,175.593 179.692 C 181.622 176.016,181.244 180.668,181.247 110.103 C 181.250 54.471,181.104 46.666,179.990 42.915 C 175.704 28.476,165.274 18.046,150.835 13.760 C 144.096 11.759,48.447 11.949,42.188 13.975 M248.438 13.975 C 234.112 18.612,224.242 28.660,220.010 42.915 C 217.853 50.179,218.128 172.016,220.308 175.593 C 223.984 181.622,219.332 181.244,289.897 181.247 C 345.529 181.250,353.334 181.104,357.085 179.990 C 371.524 175.704,381.954 165.274,386.240 150.835 C 388.139 144.438,388.139 49.312,386.240 42.915 C 381.954 28.476,371.524 18.046,357.085 13.760 C 350.346 11.759,254.697 11.949,248.438 13.975 M146.484 39.572 C 156.240 44.823,155.823 42.052,156.090 103.351 L 156.321 156.312 103.356 156.086 C 30.289 155.774,37.891 162.649,37.891 96.875 C 37.891 31.412,31.531 37.581,98.828 37.767 C 142.806 37.889,143.398 37.912,146.484 39.572 M352.734 39.572 C 362.409 44.779,362.109 42.947,362.109 96.875 C 362.109 162.653,369.716 155.773,296.644 156.086 L 243.679 156.312 243.910 103.351 C 244.228 30.264,237.405 37.580,305.078 37.767 C 349.056 37.889,349.648 37.912,352.734 39.572 M42.188 220.225 C 27.862 224.862,17.992 234.910,13.760 249.165 C 11.861 255.562,11.861 350.688,13.760 357.085 C 17.922 371.106,27.425 380.962,41.361 385.713 C 48.258 388.064,143.151 388.521,150.835 386.240 C 165.274 381.954,175.704 371.524,179.990 357.085 C 181.104 353.334,181.250 345.529,181.247 289.897 C 181.244 219.332,181.622 223.984,175.593 220.308 C 171.841 218.021,49.234 217.944,42.188 220.225 M224.407 220.308 C 218.378 223.984,218.756 219.332,218.753 289.897 C 218.750 345.529,218.896 353.334,220.010 357.085 C 224.172 371.106,233.675 380.962,247.611 385.713 C 254.508 388.064,349.401 388.521,357.085 386.240 C 371.524 381.954,381.954 371.524,386.240 357.085 C 388.139 350.688,388.139 255.562,386.240 249.165 C 381.954 234.726,371.524 224.296,357.085 220.010 C 349.821 217.853,227.984 218.128,224.407 220.308 M156.090 296.680 C 155.772 369.705,162.646 362.109,96.875 362.109 C 31.438 362.109,37.891 368.562,37.891 303.125 C 37.891 237.325,30.331 243.972,105.309 243.840 L 156.321 243.750 156.090 296.680 M352.734 245.822 C 362.409 251.029,362.109 249.197,362.109 303.125 C 362.109 368.562,368.562 362.109,303.125 362.109 C 237.348 362.109,244.228 369.716,243.910 296.649 L 243.679 243.688 296.644 243.914 C 349.159 244.139,349.636 244.155,352.734 245.822 " stroke="none" fill="#CD0000" fill-rule="evenodd"></path></g></svg>