<svg id="svg" xmlns="http://www.w3.org/2000/svg" xmlns:xlink="http://www.w3.org/1999/xlink" width="400" height="400" viewBox="0, 0, 400,400"><g id="svgg"><path id="path0" d="M118.038 58.587 C 73.603 82.621,36.979 102.561,36.651 102.900 C 36.140 103.428,90.788 133.544,93.508 134.233 C 94.367 134.451,253.127 49.151,256.630 46.589 C 257.970 45.609,202.876 14.803,199.898 14.867 C 199.309 14.880,162.472 34.554,118.038 58.587 M185.156 94.620 C 140.684 118.689,104.010 138.663,103.659 139.007 C 103.054 139.603,136.206 158.074,137.877 158.072 C 138.935 158.071,301.565 70.146,301.555 69.580 C 301.544 69.008,267.700 50.769,266.744 50.821 C 266.343 50.843,229.629 70.552,185.156 94.620 M228.720 118.556 C 183.715 142.907,147.155 163.092,147.475 163.413 C 147.796 163.733,159.758 170.315,174.058 178.038 L 200.058 192.081 282.006 147.798 C 342.686 115.009,363.715 103.294,363.032 102.662 C 362.212 101.902,311.153 74.171,310.721 74.251 C 310.625 74.268,273.725 94.206,228.720 118.556 M31.442 204.036 L 31.641 297.134 112.891 341.104 C 157.578 365.288,194.582 385.093,195.120 385.115 C 195.902 385.148,196.060 366.298,195.902 292.048 L 195.703 198.941 169.212 184.627 C 154.642 176.754,142.601 170.313,142.454 170.313 C 142.307 170.313,142.188 185.957,142.188 205.078 C 142.188 238.802,142.141 239.891,140.625 241.406 C 137.287 244.744,136.904 244.397,124.681 226.951 C 119.564 219.647,115.152 213.408,114.877 213.087 C 114.601 212.765,110.191 213.907,105.076 215.626 C 94.583 219.151,91.840 219.458,90.652 217.239 C 90.128 216.258,89.844 202.739,89.844 178.730 L 89.844 141.731 61.382 126.334 C 45.729 117.866,32.544 110.938,32.082 110.938 C 31.488 110.938,31.302 138.111,31.442 204.036 M285.547 154.996 L 204.297 198.965 204.098 292.061 C 203.940 366.296,204.098 385.150,204.880 385.125 C 205.418 385.107,242.422 365.309,287.109 341.130 L 368.359 297.166 368.558 204.052 C 368.716 129.796,368.558 110.947,367.777 110.982 C 367.238 111.007,330.234 130.813,285.547 154.996 M98.438 178.072 L 98.437 209.268 107.356 206.272 C 118.148 202.646,117.031 202.140,125.784 214.621 C 129.335 219.685,132.545 224.162,132.917 224.570 C 133.300 224.990,133.585 212.246,133.573 195.273 L 133.552 165.234 116.468 156.055 C 107.072 151.006,99.171 146.875,98.911 146.875 C 98.650 146.875,98.438 160.914,98.438 178.072 M82.258 283.153 C 113.875 300.228,114.986 301.010,112.732 304.613 C 110.819 307.670,108.042 306.505,76.953 289.607 C 44.301 271.860,43.609 271.347,47.321 267.634 C 49.429 265.526,50.503 266.003,82.258 283.153 M63.292 288.415 C 75.553 295.112,76.812 296.357,74.656 299.648 C 72.799 302.483,71.609 302.150,58.898 295.239 C 46.801 288.663,46.125 288.149,46.106 285.508 C 46.067 280.364,49.664 280.972,63.292 288.415 " stroke="none" fill="#ffffff" fill-rule="evenodd"></path></g></svg>