<svg width="222" height="222" viewBox="0 0 222 222" fill="none" xmlns="http://www.w3.org/2000/svg">
<path d="M156.811 84.3282C155.45 82.0789 153.784 80.0225 151.857 78.216C149.931 76.4024 147.782 74.8324 145.46 73.5424L125.732 62.5347C121.116 59.9517 115.89 58.6088 110.578 58.6412C109.922 58.6412 109.259 58.6412 108.589 58.6913C103.426 58.9528 98.4142 60.4915 94.0184 63.1645L75.5281 74.1937C71.0813 76.8143 67.3742 80.4881 64.7457 84.8794C64.7093 84.9438 64.6656 85.0082 64.6364 85.0654C62.0029 89.6989 60.6585 94.9323 60.7387 100.239L60.8845 122.426C60.8788 127.764 62.3115 133.009 65.0371 137.628L65.1901 137.885C67.9529 142.338 71.8403 146.014 76.4752 148.557L95.7159 159.292C100.37 161.928 105.643 163.329 111.015 163.358H111.409C116.24 163.281 120.967 161.963 125.12 159.536L145.788 147.633C150.251 145.064 154.083 141.563 157.015 137.377C159.846 132.583 161.313 127.13 161.262 121.588L161.109 99.0648C161.065 93.8604 159.579 88.7661 156.811 84.3282ZM111.234 148.464C103.651 148.514 96.2227 146.355 89.8889 142.259C83.5551 138.162 78.5999 132.313 75.6498 125.45C72.6998 118.587 71.8874 111.019 73.3154 103.703C74.7434 96.3865 78.3477 89.6504 83.6725 84.3463C88.9973 79.0421 95.8034 75.4082 103.23 73.904C110.657 72.3998 118.371 73.0928 125.397 75.8955C132.424 78.6982 138.446 83.4846 142.703 89.6495C146.96 95.8145 149.261 103.081 149.314 110.531C149.35 115.478 148.393 120.384 146.498 124.968C144.604 129.551 141.809 133.724 138.272 137.246C134.736 140.769 130.528 143.573 125.889 145.497C121.249 147.422 116.27 148.43 111.234 148.464Z" fill="#CD0000"/>
<path d="M111.529 213.962C108.909 217.193 105.858 219.871 101.8 221.159C96.1439 222.951 90.9052 221.828 86.3215 218.28C84.76 217.078 83.6446 215.034 82.853 213.149C79.9747 206.384 77.5497 199.475 74.5993 192.724C72.3039 187.499 69.2816 182.612 64.8129 178.884C60.3443 175.156 55.5086 173.847 50.0542 176.294C48.4695 176.979 47.1444 178.151 46.271 179.641C45.3977 181.13 45.0214 182.859 45.1969 184.577C45.6215 189.255 47.9673 192.566 51.5725 193.609C52.7204 193.983 53.9592 193.97 55.0991 193.572C56.2389 193.174 57.217 192.414 57.8833 191.407C58.4328 190.446 58.6312 189.324 58.4446 188.233C57.9337 185.93 56.1706 185.484 54.3357 186.988C54.0694 187.204 53.868 187.499 53.6161 187.708C53.0836 188.075 52.5223 188.427 51.9754 188.737C51.5491 188.102 51.2216 187.405 51.004 186.671C50.891 185.834 50.9763 184.981 51.253 184.183C51.5297 183.384 51.9901 182.661 52.5971 182.073C53.2041 181.485 53.9407 181.048 54.7477 180.796C55.5546 180.545 56.4093 180.487 57.2428 180.626C63.1003 181.389 66.3241 186.254 64.8057 192.055C64.5467 193.041 64.1509 193.991 63.7983 195.013C65.3526 194.746 66.9069 194.257 68.4469 194.293C69.9868 194.329 71.4116 194.876 73.0378 195.236C71.6562 198.554 69.2528 199.993 65.7268 200.763C69.3248 201.583 72.6996 201.756 75.0815 204.232C77.4633 206.708 77.3626 210.176 77.8087 213.861C77.4221 213.42 77.0594 212.959 76.7221 212.479C74.5426 208.951 71.1075 206.38 67.1084 205.283C63.568 204.203 59.9485 203.325 56.5161 201.965C53.2473 200.645 50.0881 199.069 47.0679 197.251C42.2898 194.408 40.5268 189.881 40.7211 184.476C40.7211 183.757 40.8146 183.037 40.865 182.217C39.7352 182.217 38.7062 182.217 37.6052 182.217C32.2371 182.389 28.1714 180.165 25.2715 175.66C22.4991 171.338 20.3957 166.621 19.0326 161.669C18.6297 160.23 18.1907 158.834 17.7662 157.416C16.327 152.472 13.6789 148.413 8.88641 145.995L9.08071 145.527C11.1315 145.851 13.2183 146.052 15.2332 146.52C16.333 146.752 17.3528 147.268 18.1912 148.017C19.0295 148.766 19.657 149.721 20.0113 150.788C20.7309 152.81 21.2274 154.912 21.875 157.143C22.5298 154.005 23.9043 151.507 26.9625 150.183C28.7327 153.105 28.4377 156.142 27.5454 158.935C29.7977 158.604 31.9996 157.985 34.1944 158.006C39.2315 158.057 43.1389 163.325 41.9084 168.139C41.7058 168.837 41.3652 169.486 40.9068 170.049C40.4484 170.612 39.8815 171.078 39.2398 171.417C38.5981 171.757 37.8947 171.964 37.1714 172.027C36.4481 172.089 35.7195 172.006 35.0291 171.781C33.9497 171.385 33.6619 170.817 34.4894 169.896C35.0876 169.292 35.643 168.647 36.1517 167.967C36.9864 166.736 36.641 165.707 35.4321 164.93C33.741 163.857 31.6614 164.275 30.251 165.973C28.4808 168.132 28.4305 171.09 30.1359 173.602C32.2947 176.819 37.3318 178.517 41.2896 177.409C44.8875 176.409 47.3197 172.861 47.5356 168.701C47.8594 162.432 44.5565 158.143 39.9799 154.552C34.3095 150.09 27.7469 147.29 21.0835 144.764C17.6222 143.454 14.125 142.238 10.6134 141.058C6.77119 139.788 3.58961 137.045 1.76698 133.432C-0.0556447 129.819 -0.37041 125.63 0.891782 121.784C2.17265 117.668 4.79195 114.516 7.99413 111.824C6.42542 110.097 4.77037 108.535 3.41035 106.75C1.21889 103.864 0.0223669 100.344 0.000310495 96.72C-0.0217459 93.0958 1.13184 89.5622 3.28801 86.6492C4.95026 84.3678 7.38967 83.3315 9.90824 82.3311C16.9458 79.5459 24.005 76.7895 30.9274 73.738C35.12 71.8996 38.908 69.2508 42.0739 65.9438C46.2475 61.5825 48.0825 56.5447 45.9165 50.6216C44.5277 46.8073 41.5342 45.116 37.1303 45.2887C33.0718 45.4543 29.5027 47.9156 28.3945 51.3197C27.5814 53.7955 28.4449 56.739 30.5533 57.9481C31.4813 58.4568 32.5516 58.6441 33.5971 58.4806C36.0222 57.9624 36.4755 56.1704 34.878 54.3064C34.707 54.1561 34.5482 53.9925 34.4031 53.8171C34.0073 53.1765 33.6331 52.5288 33.2517 51.8811C33.9618 51.4618 34.7307 51.1513 35.5328 50.9599C36.3442 50.8856 37.1618 50.9981 37.9231 51.2886C38.6843 51.5791 39.3689 52.04 39.9246 52.6361C40.4802 53.2321 40.8921 53.9473 41.1287 54.7271C41.3653 55.5069 41.4203 56.3305 41.2896 57.1348C40.5124 63.4968 34.8852 66.7427 28.6248 64.4325C28.0923 64.2381 27.5742 64.0006 26.9337 63.7128C27.2617 65.2509 27.4663 66.8128 27.5454 68.3835C27.3939 69.9415 27.1147 71.4844 26.7107 72.9967C23.343 71.6509 21.9254 69.204 21.0619 65.9798C20.5366 73.9395 16.6724 78.1425 8.54102 77.4948C8.54102 77.4948 8.54103 77.3077 8.61299 77.2717C14.5712 74.0619 16.5788 68.3547 18.0972 62.331C19.3657 57.3573 21.3227 52.5852 23.9114 48.1531C27.2144 42.4604 32.1364 40.2365 38.5191 40.7619C38.8573 40.7619 39.1955 40.7979 39.5338 40.8051C39.5841 40.8051 39.6345 40.7619 39.6992 40.7331C39.6992 39.3441 39.6273 37.9407 39.6992 36.5517C39.8863 31.6075 42.1746 27.9155 46.3123 25.2526C50.6933 22.4689 55.4635 20.3515 60.4666 18.9698C62.2656 18.4516 64.0645 17.8614 65.8491 17.2929C69.8315 16.124 73.2293 13.5014 75.3693 9.94486C75.5924 9.57782 75.8802 9.22517 76.2472 8.75017C76.0313 18.6243 73.6063 20.186 64.5971 21.8197C67.9575 22.5394 70.4761 23.9356 71.7498 26.9799C68.7707 28.7071 65.7412 28.5344 62.3951 27.3037C63.9494 30.4704 64.5179 33.3779 63.5393 36.4294C62.8321 38.3688 61.4499 39.9884 59.646 40.9916C57.8421 41.9948 55.7372 42.3144 53.7169 41.8918C52.349 41.4603 51.2054 40.5087 50.5324 39.242C49.8594 37.9752 49.7109 36.4948 50.1189 35.1196C50.5147 33.9752 51.0832 33.5794 52.069 34.5582C52.4 34.8749 52.7166 35.2059 53.0548 35.5082C53.9903 36.343 55.0697 37.0699 56.257 36.2279C56.8285 35.8358 57.2574 35.2689 57.4793 34.6122C57.7011 33.9556 57.704 33.2447 57.4875 32.5863C56.7679 29.9738 53.6593 28.3329 50.745 29.0598C47.8306 29.7867 45.9813 31.8881 44.9379 34.6158C42.1458 41.8846 47.3773 48.369 55.1488 47.5701C60.5386 47.0088 64.266 43.9717 67.3819 39.9846C71.98 34.1264 74.808 27.3325 77.4129 20.4451C78.6147 17.2497 79.9891 14.0759 80.7662 10.7653C83.1337 0.725665 95.4818 -1.53417 101.929 1.55329C105.104 3.08112 107.9 5.29316 110.118 8.03049C111.788 6.48316 113.299 4.86387 115.026 3.51805C117.89 1.29929 121.394 0.0661401 125.016 0.00258584C128.638 -0.0609684 132.184 1.04849 135.124 3.16541C137.535 4.87827 138.686 7.36839 139.636 10.0456C142.608 18.4228 145.529 26.8287 150.149 34.515C152.459 38.3438 155.093 41.9278 158.906 44.4179C162.987 47.0736 167.354 47.7789 171.859 45.6918C175.335 44.0869 176.896 41.1793 176.688 37.3938C176.436 33.4499 174.838 30.1969 170.996 28.5704C169.674 27.9995 168.187 27.9445 166.827 28.4161C165.467 28.8876 164.333 29.8517 163.649 31.1181C162.879 32.7086 163.274 34.7525 164.642 35.5442C166.009 36.3358 167.067 35.3858 168.074 34.4934C168.681 34.042 169.324 33.6401 169.995 33.2915C170.305 34.1048 170.852 34.9037 170.888 35.7313C171.039 39.4521 168.326 41.8342 164.642 41.3448C158.885 40.582 155.618 35.7457 157.1 30.0529C157.359 29.067 157.748 28.1098 158.194 26.7856C155.035 27.9227 152.027 28.1674 149.026 26.5265C150.221 23.4462 152.668 22.0212 156.093 21.2584C152.646 20.3444 149.271 20.2868 146.904 17.7679C144.536 15.249 144.493 12.0104 144.299 8.4551C144.54 8.67964 144.766 8.92007 144.975 9.17479C147.616 13.7232 151.811 16.0262 156.705 17.3432C162.072 18.6647 167.277 20.5738 172.226 23.036C178.925 26.5265 182.027 31.7802 181.106 39.3297C181.106 39.5326 181.125 39.7351 181.163 39.9343C183.049 39.9343 184.92 39.7759 186.762 39.9343C190.77 40.2581 193.799 42.2876 196.116 45.5478C199.226 50.068 201.552 55.0801 202.996 60.3734C203.471 62.0143 203.996 63.6408 204.5 65.2745C205.845 69.7006 208.299 73.2702 212.379 75.6092C212.63 75.7502 212.833 75.9633 212.962 76.2209C209.767 76.0482 206.486 76.2209 203.874 73.8963C201.262 71.5718 201.118 68.2684 200.182 65.1521C199.463 68.1604 197.966 70.5282 195.051 71.8164C193.324 68.8801 193.49 65.8862 194.497 63.0291C192.339 63.3817 190.216 63.9646 188.122 63.9862C186.892 63.9732 185.679 63.6874 184.573 63.1495C183.466 62.6115 182.493 61.8347 181.723 60.8751C180.953 59.9155 180.405 58.797 180.119 57.6001C179.833 56.4033 179.816 55.1579 180.07 53.9538C180.251 53.0216 180.706 52.1646 181.376 51.4917C182.046 50.8189 182.902 50.3607 183.833 50.1754C185.366 49.758 186.848 49.7148 188.237 51.1254C187.604 51.8451 187.021 52.428 186.496 53.0758C185.776 53.9682 184.891 54.9398 185.675 56.12C186.044 56.7467 186.613 57.2301 187.291 57.4914C187.97 57.7528 188.716 57.7768 189.41 57.5594C192.123 56.8397 193.727 53.5076 192.871 50.4849C192.587 49.494 192.104 48.5717 191.45 47.7747C190.797 46.9776 189.988 46.3227 189.072 45.8501C185.423 43.8926 181.595 43.3528 178.112 45.9796C174.342 48.8584 173.888 52.9822 174.788 57.2859C175.687 61.5897 178.558 64.7419 181.984 67.3616C188.266 72.277 195.555 75.2206 202.945 77.9482C205.939 79.0493 208.911 80.2656 211.976 81.086C218.812 82.9068 221.388 89.3624 221.748 94.5154C222.173 100.59 219.431 105.275 215.099 109.219C214.732 109.55 214.38 109.874 214.013 110.176C215.581 111.867 217.215 113.378 218.56 115.106C220.746 117.991 221.951 121.5 221.999 125.12C222.046 128.739 220.935 132.279 218.827 135.221C217.387 137.236 215.315 138.388 213.07 139.302C205.529 142.339 197.915 145.253 190.511 148.6C185.55 150.72 181.237 154.111 178.004 158.431C176.73 160.088 175.86 162.02 175.464 164.073C175.068 166.126 175.157 168.243 175.723 170.255C176.113 171.965 177.034 173.509 178.353 174.664C179.673 175.82 181.324 176.528 183.07 176.689C187.719 177.013 191.828 174.919 193.368 171.443C194.576 168.73 193.9 165.57 191.561 164.131C190.605 163.563 189.481 163.344 188.381 163.512C186.078 163.972 185.582 165.772 187.057 167.6C187.273 167.866 187.568 168.075 187.776 168.319C188.143 168.852 188.496 169.413 188.82 169.96C188.193 170.399 187.501 170.737 186.769 170.961C186.02 171.08 185.254 171.035 184.525 170.827C183.795 170.619 183.12 170.254 182.547 169.758C181.974 169.261 181.516 168.645 181.206 167.953C180.896 167.26 180.742 166.509 180.753 165.75C180.595 159.662 185.862 155.602 192 157.114C193.037 157.373 194.03 157.783 194.922 158.085C194.778 156.171 194.505 154.214 194.533 152.256C194.533 151.22 195.095 150.19 195.397 149.169C198.059 149.888 199.412 151.5 201.024 155.869C201.456 147.873 205.435 143.836 213.538 144.462C213.252 144.722 212.949 144.962 212.631 145.181C209.013 147.386 206.375 150.89 205.255 154.976C204.313 158.143 203.528 161.367 202.377 164.44C201.128 167.615 199.686 170.711 198.059 173.71C194.936 179.59 189.813 181.749 183.373 181.202C183.034 181.202 182.696 181.137 182.257 181.094C182.257 182.202 182.257 183.253 182.257 184.311C182.409 186.77 181.883 189.224 180.736 191.404C179.588 193.584 177.865 195.408 175.752 196.675C171.331 199.501 166.508 201.641 161.447 203.023C159.864 203.476 158.273 203.944 156.705 204.462C152.171 205.902 148.4 208.42 146.134 213.019C145.313 210.234 146.443 205.606 148.257 203.714C150.631 201.216 153.956 201.08 157.417 200.158C154.013 199.439 151.509 198.071 150.221 195.005C151.518 194.248 152.972 193.802 154.471 193.702C155.969 193.602 157.47 193.851 158.856 194.43C158.583 191.94 157.957 189.478 158.137 187.074C158.489 182.353 163.699 178.928 168.211 180.093C169.582 180.518 170.732 181.464 171.413 182.728C172.094 183.992 172.252 185.472 171.852 186.851C171.478 187.967 170.909 188.42 169.895 187.463C169.564 187.146 169.254 186.808 168.916 186.506C167.988 185.685 166.923 184.872 165.728 185.786C165.128 186.187 164.682 186.78 164.464 187.468C164.246 188.156 164.268 188.898 164.526 189.572C165.649 192.839 169.787 194.113 173.118 192.22C176.45 190.327 178.436 185.556 177.594 181.526C176.788 177.668 173.694 175.048 169.542 174.538C164.131 173.904 159.914 176.164 156.366 179.978C151.38 185.333 148.372 191.853 145.738 198.554C144.133 202.634 142.248 206.693 141.327 210.939C138.988 221.735 124.51 224.786 116.638 218.503C114.904 217.107 113.313 215.56 111.529 213.962ZM111.306 181.123C120.513 181.071 129.621 179.205 138.108 175.633C146.595 172.061 154.296 166.852 160.77 160.303C167.244 153.755 172.365 145.995 175.841 137.467C179.316 128.939 181.079 119.81 181.027 110.6C180.975 101.391 179.11 92.2826 175.538 83.7943C171.966 75.3061 166.758 67.6046 160.21 61.1295C153.662 54.6544 145.904 49.5326 137.377 46.0564C128.85 42.5803 119.722 40.8179 110.514 40.8699C72.124 41.0138 40.6203 72.86 40.865 111.039C41.1096 149.975 72.6708 181.375 111.306 181.123ZM46.6289 153.321C46.6014 153.076 46.5483 152.835 46.4706 152.601C40.1584 142.795 36.1506 131.686 34.7485 120.107C34.704 119.846 34.6056 119.596 34.4594 119.374C34.3132 119.152 34.1225 118.963 33.8994 118.819C30.985 117.38 28.1426 115.811 25.0556 114.803C18.68 112.695 12.5635 114.458 8.97278 119.071C5.51875 123.512 5.69865 130.039 9.37575 133.623C12.7003 136.862 19.2845 137.157 22.206 134.199C22.6201 133.804 22.9498 133.33 23.175 132.804C23.4003 132.278 23.5164 131.712 23.5164 131.14C23.5164 130.568 23.4003 130.002 23.175 129.476C22.9498 128.951 22.6201 128.476 22.206 128.082C20.443 126.189 18.5217 126.11 16.5141 127.815C15.7532 128.503 14.948 129.14 14.1034 129.723C12.4628 130.788 11.3474 130.248 11.2251 128.283C10.8797 124.008 13.8156 119.647 18.5937 120.014C20.1255 120.075 21.6447 120.317 23.1199 120.734C27.128 122.065 29.5962 124.814 30.1215 129.125C30.6468 133.436 29.1213 136.934 25.3219 139.266C24.5663 139.726 23.7603 140.1 22.681 140.662C31.3016 143.857 39.7496 146.83 46.6289 153.321ZM175.184 68.4771C175.295 68.8149 175.425 69.1464 175.572 69.4703C181.852 79.2455 185.83 90.3192 187.208 101.856C187.238 102.1 187.317 102.336 187.441 102.549C187.565 102.762 187.73 102.947 187.927 103.094C192.245 105.512 196.613 107.916 201.758 108.082C209.738 108.333 215.876 102.461 215.43 94.8321C214.984 86.7068 206.673 83.9648 200.844 86.9875C200.274 87.2608 199.772 87.6584 199.375 88.151C198.978 88.6436 198.697 89.2188 198.551 89.8344C198.406 90.45 198.4 91.0904 198.534 91.7086C198.668 92.3268 198.938 92.9071 199.326 93.4071C201.024 95.8468 203.305 96.0411 205.73 94.0044C206.531 93.2838 207.399 92.6404 208.321 92.0829C209.537 91.4063 210.479 91.9029 210.724 93.2128C211.573 97.2502 208.688 101.662 204.593 101.907C202.219 102.036 199.847 101.633 197.649 100.726C191.015 97.9195 189.655 88.6212 195.073 83.9288C196.389 82.9397 197.771 82.0428 199.211 81.2444C190.676 78.1425 182.228 75.1414 175.184 68.4771ZM199.556 139.41L198.038 138.618C192.857 136.005 190.842 131.047 192.713 125.584C194.152 121.41 198.347 118.805 203.708 118.762C204.794 118.746 205.87 118.972 206.858 119.424C207.846 119.875 208.721 120.541 209.421 121.372C210.12 122.203 210.625 123.18 210.9 124.231C211.176 125.282 211.214 126.381 211.012 127.448C210.76 128.715 209.94 129.284 208.774 128.679C207.749 128.087 206.785 127.395 205.896 126.613C203.579 124.749 201.384 124.965 199.722 127.268C199.332 127.747 199.051 128.305 198.899 128.903C198.747 129.501 198.728 130.126 198.842 130.732C198.957 131.339 199.202 131.913 199.562 132.415C199.921 132.917 200.386 133.334 200.923 133.638C205.306 136.279 213.638 135.271 215.416 127.815C217.193 120.359 211.717 113.422 203.902 112.767C197.865 112.277 192.885 115.091 187.949 117.963C187.582 118.179 187.409 118.92 187.345 119.438C186.361 128.402 183.783 137.118 179.731 145.174C178.53 147.528 177.227 149.831 176.27 151.608C179.609 149.492 183.236 146.866 187.165 144.807C191.094 142.749 195.311 141.223 199.556 139.41ZM22.3931 82.6046C23.0192 82.8781 23.4869 83.0652 23.9402 83.2811C31.1361 86.7356 32.2011 96.5881 25.7032 100.921C23.6084 102.157 21.2719 102.928 18.8527 103.18C14.1826 103.857 10.2177 99.474 10.9804 94.7817C11.2323 93.1624 12.2397 92.6226 13.6357 93.4647C14.6714 94.1684 15.6682 94.9276 16.622 95.7389C17.2894 96.333 18.157 96.6521 19.0503 96.6321C19.9435 96.6121 20.796 96.2543 21.4361 95.6309C24.0841 93.3927 23.8323 89.6647 20.7165 88.1318C19.1451 87.295 17.3787 86.8931 15.6 86.9678C13.8213 87.0424 12.0948 87.5909 10.599 88.5564C7.38247 90.5355 6.02964 93.659 6.32467 97.3006C6.92913 104.757 12.801 109.643 20.2703 109.247C25.1635 108.996 29.3372 106.786 33.4244 104.397C33.7479 104.174 34.0234 103.888 34.2347 103.557C34.446 103.226 34.5889 102.855 34.6549 102.468C35.8923 91.8549 39.2942 81.6087 44.65 72.3634C45.1609 71.4782 45.6934 70.6002 46.2187 69.715C42.6335 72.4465 38.858 74.9189 34.9212 77.1134C30.9778 79.1932 26.7394 80.7262 22.3931 82.6046ZM81.2268 22.7841C78.1469 31.4203 75.0671 39.8839 68.7779 46.7281C78.8315 40.2739 90.2134 36.1752 102.073 34.7381C102.286 34.6952 102.488 34.6092 102.666 34.4854C102.844 34.3617 102.995 34.2027 103.109 34.0184C105.218 30.3552 107.226 26.62 107.873 22.3883C109.219 13.5001 103.261 5.77068 94.201 6.60552C92.5348 6.69786 90.931 7.27108 89.5837 8.25583C88.2364 9.24058 87.2033 10.5947 86.6093 12.1543C85.2493 15.4217 85.2709 18.761 87.4008 21.7477C88.948 23.9068 91.6464 24.1227 93.7045 22.4099C95.7625 20.697 95.9711 18.5955 94.0498 16.3501C93.3181 15.5553 92.6606 14.6953 92.0854 13.7808C91.3658 12.5214 91.8839 11.4994 93.2583 11.2547C94.3363 11.0375 95.4495 11.0666 96.5147 11.3397C97.5799 11.6129 98.5698 12.1231 99.4103 12.8323C100.251 13.5415 100.92 14.4313 101.369 15.4355C101.818 16.4396 102.034 17.5321 102.001 18.6315C101.931 20.5067 101.535 22.3554 100.828 24.0939C100.153 25.6691 99.0919 27.0485 97.7421 28.1042C96.3923 29.1599 94.798 29.8579 93.1067 30.1335C91.4155 30.4091 89.6821 30.2533 88.0671 29.6807C86.4521 29.108 85.0077 28.137 83.8677 26.8575C82.8936 25.5629 82.0111 24.2018 81.2268 22.7841ZM82.5004 199.827C82.8458 199.108 83.0113 198.719 83.1697 198.388C85.2493 193.768 89.2214 191.544 94.201 192.213C99.1805 192.882 102.282 196.351 103.117 202.015C103.923 207.506 100.541 211.292 95.0645 211.033C93.1576 210.947 92.5315 209.802 93.5677 208.154C94.2184 207.219 94.9198 206.321 95.6689 205.462C96.1542 204.971 96.4766 204.342 96.5925 203.661C96.7083 202.98 96.612 202.28 96.3165 201.655C95.9822 200.86 95.4367 200.171 94.7391 199.664C94.0415 199.157 93.2183 198.85 92.3588 198.777C91.5252 198.689 90.6848 198.859 89.9504 199.263C89.216 199.667 88.6226 200.286 88.25 201.036C85.8465 205.355 86.6453 212.904 93.3518 215.15C101.001 217.704 109.017 211.551 109.269 203.145C109.435 197.388 106.772 192.717 104.074 188.032C103.657 187.594 103.087 187.336 102.483 187.312C93.3492 186.286 84.4743 183.624 76.2832 179.453C73.9877 178.273 71.757 176.97 69.4975 175.725C75.9953 182.411 79.14 190.918 82.5004 199.799V199.827ZM139.521 22.2299C139.06 23.1583 138.801 23.7557 138.47 24.3458C136.945 27.2246 134.735 29.2325 131.425 29.7507C124.668 30.8086 119.912 27.0446 118.854 19.9269C118.077 14.5437 121.445 10.7725 126.842 10.9956C128.856 11.0748 129.475 12.2119 128.367 13.9391C127.748 14.8963 126.928 15.724 126.259 16.6308C125.649 17.3251 125.33 18.2273 125.368 19.1504C125.406 20.0735 125.797 20.9468 126.46 21.5894C128.698 24.1155 132.368 23.8276 133.865 20.7402C137.038 14.2126 133.145 6.63429 126.014 6.41119C117.983 6.1521 112.169 12.3414 112.723 20.5243C113.047 25.2742 115.263 29.3332 117.472 33.3995C117.67 33.8025 117.976 34.1426 118.356 34.3815C118.736 34.6205 119.175 34.749 119.624 34.7525C130.82 35.9785 141.604 39.6808 151.192 45.591C151.66 45.8177 152.141 46.0171 152.632 46.1884C145.903 39.2722 142.788 30.931 139.521 22.2299ZM153.344 175.336C152.862 175.423 152.804 175.416 152.761 175.437C142.885 181.758 131.72 185.788 120.085 187.233C119.797 187.292 119.525 187.413 119.288 187.587C119.051 187.761 118.854 187.984 118.71 188.24C117.271 191.27 115.681 194.264 114.644 197.431C113.877 199.595 113.652 201.914 113.99 204.185C114.327 206.456 115.217 208.61 116.58 210.457C120.452 215.912 128.439 217.121 133.131 213.005C136.383 210.169 137.225 204.145 134.872 200.612C133.275 198.215 130.641 197.733 128.36 199.482C126.079 201.231 126.007 203.347 127.943 205.664C128.707 206.505 129.373 207.43 129.929 208.42C130.475 209.5 130.152 210.414 128.792 210.709C127.827 210.907 126.832 210.91 125.866 210.717C124.9 210.525 123.982 210.141 123.167 209.588C122.351 209.036 121.655 208.325 121.118 207.499C120.581 206.673 120.215 205.748 120.041 204.779C119.653 202.107 120.159 199.382 121.481 197.028C122.315 195.517 123.518 194.242 124.977 193.32C126.436 192.398 128.104 191.86 129.827 191.755C131.55 191.651 133.271 191.983 134.831 192.721C136.391 193.459 137.739 194.579 138.751 195.977C139.42 196.927 139.931 197.992 140.672 199.273C143.838 190.637 146.853 182.231 153.344 175.336ZM158.072 49.8947L171.506 63.1586C169.628 59.2939 169.614 55.0981 170.557 50.5856C166.052 51.7371 161.871 51.6148 158.072 49.8947ZM159.122 171.285C162.979 169.665 167.038 169.629 171.355 170.514C170.283 165.959 170.341 161.72 172.147 157.942L159.122 171.285ZM49.9822 63.7487L63.1795 50.4921C59.3225 52.3777 55.0841 52.3993 50.6298 51.4421C51.6228 55.7746 51.63 59.7545 49.9822 63.7487ZM63.935 172.069L50.6298 159.035C52.3496 163.023 52.3353 167.096 51.4502 171.342C56.0195 170.291 60.2075 170.371 63.935 172.069Z" fill="#CD0000"/>
<path d="M130.496 109.021L113.504 92.2527C112.243 91.0086 110.212 91.0221 108.968 92.2828L92.1993 109.275C90.9551 110.536 90.9686 112.567 92.2293 113.811L109.222 130.58C110.483 131.824 112.513 131.81 113.758 130.55L130.526 113.557C131.77 112.296 131.757 110.266 130.496 109.021Z" fill="#CD0000"/>
</svg>
