<svg id="svg" xmlns="http://www.w3.org/2000/svg" xmlns:xlink="http://www.w3.org/1999/xlink" width="400" height="400" viewBox="0, 0, 400,400"><g id="svgg"><path id="path0" d="M5.189 25.701 C -1.951 30.408,-1.951 41.467,5.189 46.174 C 7.265 47.542,9.275 47.646,33.759 47.651 L 60.096 47.656 61.192 51.367 C 61.795 53.408,74.518 97.892,89.466 150.219 L 116.643 245.361 113.428 252.172 C 105.630 268.696,107.457 283.656,118.659 295.019 C 127.413 303.898,132.576 305.460,153.296 305.497 L 169.141 305.525 164.959 307.029 C 133.191 318.458,133.416 363.102,165.297 374.269 C 172.799 376.897,184.530 376.197,191.797 372.687 C 220.191 358.975,217.910 317.730,188.166 307.029 L 183.984 305.525 235.547 305.525 L 287.109 305.525 282.928 307.029 C 251.160 318.458,251.384 363.102,283.266 374.269 C 290.768 376.897,302.499 376.197,309.766 372.687 C 338.160 358.975,335.879 317.730,306.135 307.029 L 301.953 305.525 323.828 305.492 C 347.948 305.455,348.270 305.395,351.642 300.280 C 354.953 295.259,353.111 286.925,347.936 283.514 C 345.778 282.091,342.331 282.041,245.703 282.017 C 141.795 281.992,140.384 281.949,136.813 278.663 C 132.385 274.589,131.906 270.279,135.124 263.477 L 137.434 258.594 241.476 258.594 C 358.355 258.594,348.686 259.088,351.821 252.948 C 354.325 248.047,400.000 86.185,399.995 82.235 C 399.989 78.219,398.383 75.041,395.230 72.809 C 393.492 71.578,382.685 71.457,242.662 71.094 L 91.964 70.703 86.191 50.391 C 80.617 30.777,80.313 29.977,77.349 27.148 L 74.279 24.219 40.851 24.224 C 9.419 24.229,7.288 24.317,5.189 25.701 M371.849 95.508 C 371.835 96.045,362.920 127.598,352.039 165.625 L 332.254 234.766 235.547 234.766 L 138.839 234.766 119.055 165.625 C 108.174 127.598,99.259 96.045,99.245 95.508 C 99.224 94.730,126.991 94.531,235.547 94.531 C 344.102 94.531,371.870 94.730,371.849 95.508 M182.311 331.170 C 191.679 337.346,187.672 351.552,176.563 351.552 C 170.276 351.552,165.635 346.912,165.635 340.625 C 165.635 334.338,170.276 329.698,176.563 329.698 C 178.696 329.698,180.956 330.277,182.311 331.170 M300.280 331.170 C 303.690 333.419,305.458 336.647,305.458 340.625 C 305.458 344.603,303.690 347.831,300.280 350.080 C 295.553 353.197,288.430 351.461,285.076 346.374 C 281.960 341.646,283.696 334.524,288.782 331.170 C 290.137 330.277,292.398 329.698,294.531 329.698 C 296.664 329.698,298.925 330.277,300.280 331.170 " stroke="none" fill="#000000" fill-rule="evenodd"></path></g></svg>