<svg id="svg" xmlns="http://www.w3.org/2000/svg" xmlns:xlink="http://www.w3.org/1999/xlink" width="400" height="400" viewBox="0, 0, 400,400"><g id="svgg"><path id="path0" d="M175.000 1.183 C 10.270 21.534,-58.998 223.923,58.539 341.461 C 176.367 459.289,378.987 389.487,398.870 224.219 C 414.431 94.879,304.345 -14.797,175.000 1.183 M224.746 25.740 C 358.440 45.410,422.357 204.339,338.440 308.437 C 333.338 314.766,333.853 314.965,330.765 305.469 C 318.489 267.712,285.578 232.741,250.691 220.383 L 248.047 219.447 250.391 217.800 C 276.830 199.230,290.185 161.162,281.713 128.516 C 265.402 65.655,185.981 44.160,140.214 90.219 C 104.255 126.407,108.537 186.986,149.206 217.429 L 151.928 219.466 147.644 221.210 C 111.180 236.050,82.071 267.071,69.552 304.429 C 66.041 314.906,66.564 314.644,61.560 308.437 C 20.114 257.024,12.367 182.642,42.170 122.266 C 75.731 54.274,150.394 14.801,224.746 25.740 M214.453 91.406 C 259.914 103.033,275.432 158.449,242.578 191.844 C 212.042 222.884,160.390 212.405,144.008 171.847 C 125.975 127.204,167.779 79.469,214.453 91.406 M220.703 237.068 C 265.469 245.187,302.055 281.404,311.275 326.725 C 313.021 335.306,313.132 335.019,306.016 340.314 C 241.959 387.980,158.526 387.980,93.930 340.314 L 87.470 335.547 87.919 331.641 C 94.877 271.111,158.512 225.788,220.703 237.068 " stroke="none" fill="#000000" fill-rule="evenodd"></path></g></svg>