<svg id="svg" xmlns="http://www.w3.org/2000/svg" xmlns:xlink="http://www.w3.org/1999/xlink" width="400" height="400" viewBox="0, 0, 400,400"><g id="svgg"><path id="path0" d="M164.063 32.880 C 75.744 44.200,16.407 128.238,35.647 214.752 C 56.623 309.067,159.643 359.358,246.857 317.857 C 255.770 313.616,273.405 302.730,274.665 300.692 C 274.969 300.199,288.692 313.318,307.322 331.911 C 341.829 366.352,341.897 366.406,350.014 366.406 C 361.863 366.406,369.324 356.264,365.994 344.685 C 364.746 340.346,363.901 339.419,332.278 307.712 C 313.843 289.229,300.203 274.967,300.679 274.673 C 306.811 270.883,322.935 238.553,327.596 220.703 C 354.429 117.928,268.703 19.469,164.063 32.880 M201.431 67.598 C 283.807 80.921,325.444 176.647,279.159 246.299 C 226.745 325.174,106.258 311.329,73.415 222.656 C 42.519 139.243,113.422 53.364,201.431 67.598 " stroke="none" fill="#000000" fill-rule="evenodd"></path></g></svg>